<?xml version="1.0" encoding="UTF-8"?>
<svg width="254px" height="31px" viewBox="0 0 254 31" version="1.1" xmlns="http://www.w3.org/2000/svg" xmlns:xlink="http://www.w3.org/1999/xlink">
    <!-- Generator: Sketch 56.3 (81716) - https://sketch.com -->
    <title>LOGO </title>
    <desc>Created with Sketch.</desc>
    <defs>
        <polygon id="path-1" points="0.0061886278 0.0327134146 26.858121 0.0327134146 26.858121 28.965872 0.0061886278 28.965872"></polygon>
    </defs>
    <g id="Symbols" stroke="none" stroke-width="1" fill="none" fill-rule="evenodd">
        <g id="nav/DEVs-1bar-R1" transform="translate(-180.000000, -32.000000)">
            <g id="Marketing/Navigation/Main-Nav" transform="translate(-158.000000, 0.000000)">
                <g id="btm-bar-standard" transform="translate(158.000000, 0.000000)">
                    <g id="LOGO-" transform="translate(180.000000, 28.000000)">
                        <polyline id="Fill-1" fill="#425B76" points="11.3474043 9 11.3474043 16.9601396 3.65366948 16.9601396 3.65366948 9 0 9 0 28 3.65366948 28 3.65366948 20.2996778 11.3474043 20.2996778 11.3474043 28 15 28 15 9"></polyline>
                        <path d="M26.531275,21.5394388 C26.531275,23.2000785 25.1704593,24.5509653 23.500359,24.5509653 C21.8297203,24.5509653 20.469802,23.2000785 20.469802,21.5394388 L20.469802,13 L17,13 L17,21.5394388 C17,25.1021328 19.9160338,28 23.500359,28 C27.0839662,28 30,25.1021328 30,21.5394388 L30,13 L26.531275,13" id="Fill-2" fill="#425B76"></path>
                        <path d="M51.0091019,14.5574057 C51.0091019,12.889215 52.1315744,12.3603511 53.3603318,12.3603511 C54.3499049,12.3603511 55.659197,13.1012025 56.5136241,14.0013421 L58.7043032,11.4608915 C57.6094821,10.0058784 55.3918428,9 53.5744571,9 C49.9395126,9 47.3204102,11.0906358 47.3204102,14.5574057 C47.3204102,20.9875812 55.3116539,18.9493048 55.3116539,22.5490131 C55.3116539,23.6592703 54.2163143,24.6391389 52.9605968,24.6391389 C50.9823146,24.6391389 50.3406302,23.6866399 49.432283,22.6807616 L47,25.1678328 C48.5508958,27.046821 50.4743937,28 52.773086,28 C56.2205196,28 59,25.8828445 59,22.5746828 C59,15.4301755 51.0091019,17.6532398 51.0091019,14.5574057" id="Fill-3" fill="#425B76"></path>
                        <path d="M100.841134,24.8783251 C98.8942595,24.8783251 98.3416324,24.0177853 98.3416324,22.6989638 L98.3416324,16.8610037 L101.367721,16.8610037 L101.367721,13.9016587 L98.3416324,13.9016587 L98.3416324,10 L95,11.5333475 L95,23.4255336 C95,26.4661305 97.0520557,28 99.8671011,28 C100.288167,28 100.867855,27.9723361 101.184079,27.892476 L102,24.825607 C101.631695,24.8515311 101.2108,24.8783251 100.841134,24.8783251" id="Fill-4" fill="#425B76"></path>
                        <path d="M39.1382909,24.6641508 C37.0742907,24.6641508 35.4013785,22.9809289 35.4013785,20.9047615 C35.4013785,18.8284231 37.0742907,17.1453721 39.1382909,17.1453721 C41.2017814,17.1453721 42.8748635,18.8284231 42.8748635,20.9047615 C42.8748635,22.9809289 41.2017814,24.6641508 39.1382909,24.6641508 M39.1586778,13.7269685 C37.5295974,13.7269685 36.39252,14.2026394 35.2945174,15.286957 L35.2945174,9 L32,9 L32,20.6517996 C32,25.0131698 35.1341407,28 38.655462,28 C42.5700798,28 46,24.9600137 46,20.8637406 C46,16.8195982 42.8371478,13.7269685 39.1586778,13.7269685" id="Fill-5" fill="#425B76"></path>
                        <path d="M71.8749014,21.0953456 C71.8749014,23.1714944 70.2018396,24.8547012 68.1382043,24.8547012 C66.074399,24.8547012 64.4015072,23.1714944 64.4015072,21.0953456 C64.4015072,19.0190259 66.074399,17.3359901 68.1382043,17.3359901 C70.2018396,17.3359901 71.8749014,19.0190259 71.8749014,21.0953456 M75,21.1361952 C75,17.0401299 71.5701215,14 67.655721,14 C64.1341027,14 61,16.9869742 61,21.3481343 L61,33 L64.2946473,33 L64.2946473,26.7129286 C65.3926365,27.7972365 66.5297001,28.273074 68.1587608,28.273074 C71.8371862,28.273074 75,25.1804721 75,21.1361952" id="Fill-6" fill="#425B76"></path>
                        <g id="Group-9" transform="translate(66.000000, 4.000000)">
                            <mask id="mask-2" fill="white">
                                <use xlink:href="#path-1"></use>
                            </mask>
                            <g id="Clip-8"></g>
                            <path d="M19.5129172,20.8822988 C17.4330573,20.8822988 15.7466752,19.1486646 15.7466752,17.0100915 C15.7466752,14.8715183 17.4330573,13.1377073 19.5129172,13.1377073 C21.5926051,13.1377073 23.2788153,14.8715183 23.2788153,17.0100915 C23.2788153,19.1486646 21.5926051,20.8822988 19.5129172,20.8822988 M20.6403822,6.11068902 C21.5147006,5.68594512 22.1274459,4.77633537 22.1274459,3.72066463 L22.1274459,3.64109146 C22.1274459,2.18437195 20.9679936,0.992365854 19.5514395,0.992365854 L19.474051,0.992365854 C18.0573248,0.992365854 16.8978726,2.18437195 16.8978726,3.64109146 L16.8978726,3.72066463 C16.8978726,4.77633537 17.5107898,5.68594512 18.3851083,6.11068902 L18.3851083,9.55532317 C17.0832611,9.76203659 15.8937134,10.3142744 14.9120828,11.1268049 L5.71419745,3.76964634 C5.77473248,3.53021951 5.81721019,3.28336585 5.81755414,3.02431098 C5.81961783,1.37414024 4.52035032,0.0348353659 2.91548408,0.0327108903 C1.31078981,0.0305914634 0.00808280255,1.36653659 0.0061886278,3.01670732 C0.00412738854,4.66670122 1.3033949,6.0060061 2.90826115,6.00812805 C3.43123567,6.00883537 3.91517197,5.85605488 4.3396051,5.60796341 L13.3875287,12.8452317 C12.6179427,14.0395366 12.1673694,15.4700854 12.1673694,17.0100915 C12.1673694,18.6224207 12.6626561,20.113622 13.499828,21.3402866 L10.7482357,24.1695549 C10.5306879,24.1025366 10.3048854,24.0555 10.0658408,24.0555 C8.7473121,24.0555 7.6781465,25.1548476 7.6781465,26.5107744 C7.6781465,27.8667012 8.7473121,28.965872 10.0658408,28.965872 C11.3847134,28.965872 12.453707,27.8667012 12.453707,26.5107744 C12.453707,26.2651585 12.4081338,26.0328049 12.3427834,25.8092927 L15.0646242,23.0106159 C16.3000892,23.9805244 17.8385732,24.5628232 19.5129172,24.5628232 C23.5696242,24.5628232 26.858293,21.1813171 26.858293,17.0100915 C26.858293,13.2339024 24.1603567,10.1142805 20.6403822,9.55514634 L20.6403822,6.11068902 Z" id="Fill-7" fill="#FF7A59" mask="url(#mask-2)"></path>
                        </g>
                        <path d="M109.632,8.176 L116.212,8.176 C117.444006,8.176 118.68066,8.38133128 119.922,8.792 C121.16334,9.20266872 122.283328,9.82332918 123.282,10.654 C124.280672,11.4846708 125.087997,12.5206605 125.704,13.762 C126.320003,15.0033395 126.628,16.4453251 126.628,18.088 C126.628,19.7493416 126.320003,21.1959938 125.704,22.428 C125.087997,23.6600062 124.280672,24.6913292 123.282,25.522 C122.283328,26.3526708 121.16334,26.9733313 119.922,27.384 C118.68066,27.7946687 117.444006,28 116.212,28 L109.632,28 L109.632,8.176 Z M111.648,26.208 L115.652,26.208 C117.145341,26.208 118.447328,25.974669 119.558,25.508 C120.668672,25.041331 121.587996,24.4300038 122.316,23.674 C123.044004,22.9179962 123.589998,22.0546715 123.954,21.084 C124.318002,20.1133285 124.5,19.1146718 124.5,18.088 C124.5,17.0613282 124.318002,16.0626715 123.954,15.092 C123.589998,14.1213285 123.044004,13.2580038 122.316,12.502 C121.587996,11.7459962 120.668672,11.134669 119.558,10.668 C118.447328,10.201331 117.145341,9.968 115.652,9.968 L111.648,9.968 L111.648,26.208 Z M140.712,20.44 C140.656,19.2079938 140.259337,18.1860041 139.522,17.374 C138.784663,16.5619959 137.734673,16.156 136.372,16.156 C135.73733,16.156 135.149336,16.2726655 134.608,16.506 C134.066664,16.7393345 133.590669,17.0566647 133.18,17.458 C132.769331,17.8593353 132.442668,18.3166641 132.2,18.83 C131.957332,19.3433359 131.817334,19.8799972 131.78,20.44 L140.712,20.44 Z M142.644,21.056 L142.644,21.476 C142.644,21.6253341 142.634667,21.7839992 142.616,21.952 L131.752,21.952 C131.770667,22.6053366 131.901332,23.2213304 132.144,23.8 C132.386668,24.3786696 132.722665,24.8826645 133.152,25.312 C133.581335,25.7413355 134.08533,26.0819987 134.664,26.334 C135.24267,26.5860013 135.867997,26.712 136.54,26.712 C137.529338,26.712 138.38333,26.4833356 139.102,26.026 C139.82067,25.5686644 140.366665,25.0413363 140.74,24.444 L142.168,25.564 C141.383996,26.5533383 140.520671,27.2626645 139.578,27.692 C138.635329,28.1213355 137.622672,28.336 136.54,28.336 C135.569328,28.336 134.668671,28.1633351 133.838,27.818 C133.007329,27.4726649 132.293336,26.9920031 131.696,26.376 C131.098664,25.7599969 130.627335,25.0320042 130.282,24.192 C129.936665,23.3519958 129.764,22.4373383 129.764,21.448 C129.764,20.4586617 129.931998,19.5440042 130.268,18.704 C130.604002,17.8639958 131.070664,17.1360031 131.668,16.52 C132.265336,15.9039969 132.965329,15.4233351 133.768,15.078 C134.570671,14.7326649 135.438662,14.56 136.372,14.56 C137.398672,14.56 138.303996,14.7326649 139.088,15.078 C139.872004,15.4233351 140.525331,15.8899971 141.048,16.478 C141.570669,17.0660029 141.967332,17.7519961 142.238,18.536 C142.508668,19.3200039 142.644,20.1599955 142.644,21.056 Z M152.108,28 L150.008,28 L144.66,14.896 L146.788,14.896 L151.044,25.984 L151.1,25.984 L155.384,14.896 L157.428,14.896 L152.108,28 Z M170.392,20.44 C170.336,19.2079938 169.939337,18.1860041 169.202,17.374 C168.464663,16.5619959 167.414673,16.156 166.052,16.156 C165.41733,16.156 164.829336,16.2726655 164.288,16.506 C163.746664,16.7393345 163.270669,17.0566647 162.86,17.458 C162.449331,17.8593353 162.122668,18.3166641 161.88,18.83 C161.637332,19.3433359 161.497334,19.8799972 161.46,20.44 L170.392,20.44 Z M172.324,21.056 L172.324,21.476 C172.324,21.6253341 172.314667,21.7839992 172.296,21.952 L161.432,21.952 C161.450667,22.6053366 161.581332,23.2213304 161.824,23.8 C162.066668,24.3786696 162.402665,24.8826645 162.832,25.312 C163.261335,25.7413355 163.76533,26.0819987 164.344,26.334 C164.92267,26.5860013 165.547997,26.712 166.22,26.712 C167.209338,26.712 168.06333,26.4833356 168.782,26.026 C169.50067,25.5686644 170.046665,25.0413363 170.42,24.444 L171.848,25.564 C171.063996,26.5533383 170.200671,27.2626645 169.258,27.692 C168.315329,28.1213355 167.302672,28.336 166.22,28.336 C165.249328,28.336 164.348671,28.1633351 163.518,27.818 C162.687329,27.4726649 161.973336,26.9920031 161.376,26.376 C160.778664,25.7599969 160.307335,25.0320042 159.962,24.192 C159.616665,23.3519958 159.444,22.4373383 159.444,21.448 C159.444,20.4586617 159.611998,19.5440042 159.948,18.704 C160.284002,17.8639958 160.750664,17.1360031 161.348,16.52 C161.945336,15.9039969 162.645329,15.4233351 163.448,15.078 C164.250671,14.7326649 165.118662,14.56 166.052,14.56 C167.078672,14.56 167.983996,14.7326649 168.768,15.078 C169.552004,15.4233351 170.205331,15.8899971 170.728,16.478 C171.250669,17.0660029 171.647332,17.7519961 171.918,18.536 C172.188668,19.3200039 172.324,20.1599955 172.324,21.056 Z M178.372,28 L176.468,28 L176.468,6.832 L178.372,6.832 L178.372,28 Z M196.488,21.448 C196.488,22.4373383 196.315335,23.3519958 195.97,24.192 C195.624665,25.0320042 195.144003,25.7599969 194.528,26.376 C193.911997,26.9920031 193.174671,27.4726649 192.316,27.818 C191.457329,28.1633351 190.514672,28.336 189.488,28.336 C188.479995,28.336 187.546671,28.1633351 186.688,27.818 C185.829329,27.4726649 185.092003,26.9920031 184.476,26.376 C183.859997,25.7599969 183.379335,25.0320042 183.034,24.192 C182.688665,23.3519958 182.516,22.4373383 182.516,21.448 C182.516,20.4586617 182.688665,19.5440042 183.034,18.704 C183.379335,17.8639958 183.859997,17.1360031 184.476,16.52 C185.092003,15.9039969 185.829329,15.4233351 186.688,15.078 C187.546671,14.7326649 188.479995,14.56 189.488,14.56 C190.514672,14.56 191.457329,14.7326649 192.316,15.078 C193.174671,15.4233351 193.911997,15.9039969 194.528,16.52 C195.144003,17.1360031 195.624665,17.8639958 195.97,18.704 C196.315335,19.5440042 196.488,20.4586617 196.488,21.448 Z M194.472,21.448 C194.472,20.7199964 194.355335,20.0340032 194.122,19.39 C193.888666,18.7459968 193.557335,18.1860024 193.128,17.71 C192.698665,17.2339976 192.176003,16.8560014 191.56,16.576 C190.943997,16.2959986 190.253337,16.156 189.488,16.156 C188.722663,16.156 188.03667,16.2959986 187.43,16.576 C186.82333,16.8560014 186.305335,17.2339976 185.876,17.71 C185.446665,18.1860024 185.115335,18.7459968 184.882,19.39 C184.648665,20.0340032 184.532,20.7199964 184.532,21.448 C184.532,22.1760036 184.648665,22.8619968 184.882,23.506 C185.115335,24.1500032 185.446665,24.7099976 185.876,25.186 C186.305335,25.6620024 186.82333,26.035332 187.43,26.306 C188.03667,26.576668 188.722663,26.712 189.488,26.712 C190.253337,26.712 190.943997,26.576668 191.56,26.306 C192.176003,26.035332 192.698665,25.6620024 193.128,25.186 C193.557335,24.7099976 193.888666,24.1500032 194.122,23.506 C194.355335,22.8619968 194.472,22.1760036 194.472,21.448 Z M202.48,34.72 L200.576,34.72 L200.576,14.896 L202.48,14.896 L202.48,17.164 L202.564,17.164 C203.105336,16.305329 203.828662,15.6566689 204.734,15.218 C205.639338,14.7793311 206.558662,14.56 207.492,14.56 C208.518672,14.56 209.447329,14.7373316 210.278,15.092 C211.108671,15.4466684 211.817997,15.9319969 212.406,16.548 C212.994003,17.1640031 213.451332,17.8919958 213.778,18.732 C214.104668,19.5720042 214.268,20.4773285 214.268,21.448 C214.268,22.4186715 214.104668,23.3239958 213.778,24.164 C213.451332,25.0040042 212.994003,25.7319969 212.406,26.348 C211.817997,26.9640031 211.108671,27.4493316 210.278,27.804 C209.447329,28.1586684 208.518672,28.336 207.492,28.336 C206.558662,28.336 205.639338,28.1166689 204.734,27.678 C203.828662,27.2393311 203.105336,26.6093374 202.564,25.788 L202.48,25.788 L202.48,34.72 Z M212.252,21.448 C212.252,20.7199964 212.140001,20.0340032 211.916,19.39 C211.691999,18.7459968 211.370002,18.1860024 210.95,17.71 C210.529998,17.2339976 210.012003,16.8560014 209.396,16.576 C208.779997,16.2959986 208.080004,16.156 207.296,16.156 C206.567996,16.156 205.896003,16.291332 205.28,16.562 C204.663997,16.832668 204.132002,17.2059976 203.684,17.682 C203.235998,18.1580024 202.886001,18.7179968 202.634,19.362 C202.381999,20.0060032 202.256,20.7013296 202.256,21.448 C202.256,22.1946704 202.381999,22.8899968 202.634,23.534 C202.886001,24.1780032 203.235998,24.733331 203.684,25.2 C204.132002,25.666669 204.663997,26.035332 205.28,26.306 C205.896003,26.576668 206.567996,26.712 207.296,26.712 C208.080004,26.712 208.779997,26.576668 209.396,26.306 C210.012003,26.035332 210.529998,25.6620024 210.95,25.186 C211.370002,24.7099976 211.691999,24.1500032 211.916,23.506 C212.140001,22.8619968 212.252,22.1760036 212.252,21.448 Z M228.352,20.44 C228.296,19.2079938 227.899337,18.1860041 227.162,17.374 C226.424663,16.5619959 225.374673,16.156 224.012,16.156 C223.37733,16.156 222.789336,16.2726655 222.248,16.506 C221.706664,16.7393345 221.230669,17.0566647 220.82,17.458 C220.409331,17.8593353 220.082668,18.3166641 219.84,18.83 C219.597332,19.3433359 219.457334,19.8799972 219.42,20.44 L228.352,20.44 Z M230.284,21.056 L230.284,21.476 C230.284,21.6253341 230.274667,21.7839992 230.256,21.952 L219.392,21.952 C219.410667,22.6053366 219.541332,23.2213304 219.784,23.8 C220.026668,24.3786696 220.362665,24.8826645 220.792,25.312 C221.221335,25.7413355 221.72533,26.0819987 222.304,26.334 C222.88267,26.5860013 223.507997,26.712 224.18,26.712 C225.169338,26.712 226.02333,26.4833356 226.742,26.026 C227.46067,25.5686644 228.006665,25.0413363 228.38,24.444 L229.808,25.564 C229.023996,26.5533383 228.160671,27.2626645 227.218,27.692 C226.275329,28.1213355 225.262672,28.336 224.18,28.336 C223.209328,28.336 222.308671,28.1633351 221.478,27.818 C220.647329,27.4726649 219.933336,26.9920031 219.336,26.376 C218.738664,25.7599969 218.267335,25.0320042 217.922,24.192 C217.576665,23.3519958 217.404,22.4373383 217.404,21.448 C217.404,20.4586617 217.571998,19.5440042 217.908,18.704 C218.244002,17.8639958 218.710664,17.1360031 219.308,16.52 C219.905336,15.9039969 220.605329,15.4233351 221.408,15.078 C222.210671,14.7326649 223.078662,14.56 224.012,14.56 C225.038672,14.56 225.943996,14.7326649 226.728,15.078 C227.512004,15.4233351 228.165331,15.8899971 228.688,16.478 C229.210669,17.0660029 229.607332,17.7519961 229.878,18.536 C230.148668,19.3200039 230.284,20.1599955 230.284,21.056 Z M234.372,17.78 C234.372,17.4253316 234.362667,16.9680028 234.344,16.408 C234.325333,15.8479972 234.297334,15.3440022 234.26,14.896 L236.08,14.896 C236.117334,15.2506684 236.145333,15.6426645 236.164,16.072 C236.182667,16.5013355 236.192,16.8559986 236.192,17.136 L236.248,17.136 C236.621335,16.3706628 237.18133,15.7500024 237.928,15.274 C238.67467,14.7979976 239.514662,14.56 240.448,14.56 C240.690668,14.56 240.909999,14.5693332 241.106,14.588 C241.302001,14.6066668 241.502666,14.6439997 241.708,14.7 L241.456,16.492 C241.343999,16.4546665 241.157335,16.4173335 240.896,16.38 C240.634665,16.3426665 240.373335,16.324 240.112,16.324 C239.607997,16.324 239.122669,16.4173324 238.656,16.604 C238.189331,16.7906676 237.783335,17.0846647 237.438,17.486 C237.092665,17.8873353 236.812668,18.4006635 236.598,19.026 C236.383332,19.6513365 236.276,20.4026623 236.276,21.28 L236.276,28 L234.372,28 L234.372,17.78 Z M251.424,18.004 C251.143999,17.462664 250.719336,17.0193351 250.15,16.674 C249.580664,16.3286649 248.932004,16.156 248.204,16.156 C247.867998,16.156 247.532002,16.193333 247.196,16.268 C246.859998,16.342667 246.561335,16.4639992 246.3,16.632 C246.038665,16.8000008 245.828667,17.0146654 245.67,17.276 C245.511333,17.5373346 245.432,17.8453316 245.432,18.2 C245.432,18.8160031 245.683997,19.2873317 246.188,19.614 C246.692003,19.9406683 247.485328,20.2159989 248.568,20.44 C250.117341,20.7573349 251.260663,21.2193303 251.998,21.826 C252.735337,22.4326697 253.104,23.2493282 253.104,24.276 C253.104,25.0226704 252.959335,25.6526641 252.67,26.166 C252.380665,26.6793359 252.002669,27.0993317 251.536,27.426 C251.069331,27.7526683 250.542003,27.9859993 249.954,28.126 C249.365997,28.2660007 248.773336,28.336 248.176,28.336 C247.186662,28.336 246.225338,28.1306687 245.292,27.72 C244.358662,27.3093313 243.593336,26.6653377 242.996,25.788 L244.508,24.668 C244.844002,25.2466696 245.338663,25.731998 245.992,26.124 C246.645337,26.516002 247.363996,26.712 248.148,26.712 C248.558669,26.712 248.950665,26.674667 249.324,26.6 C249.697335,26.525333 250.023999,26.3946676 250.304,26.208 C250.584001,26.0213324 250.807999,25.7833348 250.976,25.494 C251.144001,25.2046652 251.228,24.8453355 251.228,24.416 C251.228,23.7253299 250.89667,23.2073351 250.234,22.862 C249.57133,22.5166649 248.614673,22.1946682 247.364,21.896 C246.971998,21.8026662 246.556669,21.6860007 246.118,21.546 C245.679331,21.4059993 245.273335,21.200668 244.9,20.93 C244.526665,20.659332 244.218668,20.3186687 243.976,19.908 C243.733332,19.4973313 243.612,18.9840031 243.612,18.368 C243.612,17.6959966 243.742665,17.1220024 244.004,16.646 C244.265335,16.1699976 244.615331,15.7780015 245.054,15.47 C245.492669,15.1619985 245.991997,14.9333341 246.552,14.784 C247.112003,14.6346659 247.690664,14.56 248.288,14.56 C249.202671,14.56 250.089329,14.7653313 250.948,15.176 C251.806671,15.5866687 252.450665,16.1653296 252.88,16.912 L251.424,18.004 Z" id="Developers" fill="#425B76" fill-rule="nonzero"></path>
                    </g>
                </g>
            </g>
        </g>
    </g>
</svg>